<svg height="512pt" viewBox="0 0 512 512" width="512pt" xmlns="http://www.w3.org/2000/svg"><path d="m494.34375 353.101562h-118.464844l10.859375-6.265624 91.71875-52.964844c4.058594-2.332032 7.03125-6.179688 8.253907-10.699219 1.226562-4.519531.605468-9.339844-1.722657-13.402344l-61.792969-106.988281c-2.34375-4.070312-6.214843-7.039062-10.753906-8.25-4.539062-1.210938-9.375-.558594-13.433594 1.804688l-91.71875 52.964843-11.230468 6.480469.371094-.210938 6.269531-10.859374 52.964843-91.71875c2.363282-4.058594 3.015626-8.894532 1.804688-13.433594-1.210938-4.539063-4.179688-8.410156-8.25-10.753906l-106.988281-61.792969c-4.0625-2.328125-8.882813-2.949219-13.402344-1.722657-4.519531 1.222657-8.367187 4.195313-10.699219 8.253907l-52.964844 91.71875-6.265624 10.859375v-118.464844c-.03125-9.738281-7.917969-17.6289062-17.65625-17.65625h-123.585938c-9.738281.0273438-17.6289062 7.917969-17.65625 17.65625v476.6875c.0273438 9.738281 7.917969 17.628906 17.65625 17.65625h476.6875c9.738281-.027344 17.628906-7.917969 17.65625-17.65625v-123.585938c-.027344-9.738281-7.917969-17.625-17.65625-17.65625zm0 0" fill="#bdc3c7"/><path d="m158.898438 17.65625v105.929688h-158.898438v-105.929688c.0273438-9.738281 7.917969-17.6289062 17.65625-17.65625h123.585938c9.738281.0273438 17.625 7.917969 17.65625 17.65625zm0 0" fill="#4fba6f"/><path d="m158.898438 123.585938v12.535156l-5.210938 111.050781h-153.6875v-123.585937zm0 0" fill="#24ae5f"/><path d="m153.6875 247.171875-12.445312 264.828125h-123.585938c-9.738281-.027344-17.6289062-7.917969-17.65625-17.65625v-247.171875zm0 0" fill="#4c8056"/><path d="m247.703125 353.101562h-189.441406l142.035156-82.007812zm0 0" fill="#3d324c"/><path d="m386.738281 346.835938-10.859375 6.265624h-128.175781l-47.40625-82.007812 106.992187-61.792969zm0 0" fill="#894b9d"/><path d="m478.457031 293.871094-91.71875 52.964844-79.449219-137.535157 91.71875-52.964843c4.058594-2.363282 8.894532-3.015626 13.433594-1.804688 4.539063 1.210938 8.410156 4.179688 10.753906 8.25l61.792969 106.988281c2.328125 4.0625 2.949219 8.882813 1.722657 13.402344-1.222657 4.519531-4.195313 8.367187-8.253907 10.699219zm0 0" fill="#955ba5"/><path d="m355.664062 112.992188-52.964843 91.71875-137.535157-79.449219 52.964844-91.71875c2.332032-4.058594 6.179688-7.03125 10.699219-8.253907 4.519531-1.226562 9.339844-.605468 13.402344 1.722657l106.988281 61.792969c4.070312 2.34375 7.039062 6.214843 8.25 10.753906 1.210938 4.539062.558594 9.375-1.804688 13.433594zm0 0" fill="#3b97d3"/><path d="m302.699219 204.710938-6.269531 10.859374-110.519532 64.792969-.441406-.707031-82.097656-47.402344 55.527344-96.132812 6.265624-10.859375zm0 0" fill="#2980ba"/><path d="m185.910156 280.363281-124.117187 72.738281h-28.160157l69.738282-120.847656 82.097656 47.402344zm0 0" fill="#285680"/><path d="m141.242188 353.101562v158.898438h-123.585938c-9.738281-.027344-17.6289062-7.917969-17.65625-17.65625v-123.585938c.0273438-9.738281 7.917969-17.625 17.65625-17.65625zm0 0" fill="#bdc3c7"/><path d="m141.242188 353.101562h123.585937v158.898438h-123.585937zm0 0" fill="#e57e25"/><path d="m264.828125 353.101562h123.585937v158.898438h-123.585937zm0 0" fill="#f29c1f"/><path d="m512 370.757812v123.585938c-.027344 9.738281-7.917969 17.628906-17.65625 17.65625h-105.929688v-158.898438h105.929688c9.738281.03125 17.628906 7.917969 17.65625 17.65625zm0 0" fill="#f0c419"/><path d="m105.929688 432.550781c0 14.628907-11.855469 26.484375-26.480469 26.484375-14.628907 0-26.484375-11.855468-26.484375-26.484375 0-14.625 11.855468-26.480469 26.484375-26.480469 14.625 0 26.480469 11.855469 26.480469 26.480469zm0 0" fill="#35495e"/></svg>